<svg xmlns="http://www.w3.org/2000/svg" viewBox="0 20.790000915527344 23.049999237060547 37.869998931884766" data-asc="0.96875" width="23.049999237060547" height="37.869998931884766"><defs/><g fill="#ffffff"><g transform="translate(0, 0)"><path d="M0 58.66L0 21.16L3.07 21.16L3.07 26.37L3.44 26.37Q4.01 25.14 5.01 23.85Q6.00 22.57 7.64 21.68Q9.29 20.79 11.79 20.79Q15.16 20.79 17.69 22.56Q20.22 24.33 21.64 27.49Q23.05 30.66 23.05 34.87Q23.05 39.10 21.64 42.28Q20.22 45.45 17.69 47.23Q15.16 49.01 11.83 49.01Q9.36 49.01 7.70 48.12Q6.04 47.23 5.02 45.93Q4.00 44.62 3.44 43.38L3.16 43.38L3.16 58.66L0 58.66M3.13 34.82Q3.13 38.12 4.11 40.67Q5.10 43.22 6.95 44.66Q8.81 46.11 11.45 46.11Q14.17 46.11 16.04 44.61Q17.92 43.11 18.90 40.55Q19.89 38.00 19.89 34.82Q19.89 31.68 18.92 29.15Q17.95 26.63 16.07 25.15Q14.19 23.67 11.45 23.67Q8.79 23.67 6.92 25.10Q5.06 26.53 4.09 29.04Q3.13 31.55 3.13 34.82Z"/></g></g></svg>